<?xml version="1.0"?>
<svg xmlns="http://www.w3.org/2000/svg" id="Capa_1" enable-background="new 0 0 512 512" height="512" viewBox="0 0 512 512" width="512"><g><g><g><circle cx="156" cy="256" r="25" data-original="#000000" class="active-path" style="fill:#00AD5F" data-old_color="#000000"/><circle cx="336" cy="356" r="25" data-original="#000000" class="active-path" style="fill:#00AD5F" data-old_color="#000000"/><circle cx="336" cy="156" r="25" data-original="#000000" class="active-path" style="fill:#00AD5F" data-old_color="#000000"/><path d="m256 0c-141.159 0-256 114.841-256 256s114.841 256 256 256 256-114.841 256-256-114.841-256-256-256zm-45 256c0 4.329-.519 8.537-1.469 12.581l87.523 48.623c9.965-10.003 23.744-16.204 38.946-16.204 30.327 0 55 24.673 55 55s-24.673 55-55 55-55-24.673-55-55c0-4.329.519-8.537 1.469-12.581l-87.523-48.623c-9.965 10.003-23.744 16.204-38.946 16.204-30.327 0-55-24.673-55-55s24.673-55 55-55c15.202 0 28.981 6.201 38.946 16.204l87.523-48.623c-.95-4.044-1.469-8.252-1.469-12.581 0-30.327 24.673-55 55-55s55 24.673 55 55-24.673 55-55 55c-15.202 0-28.981-6.201-38.946-16.204l-87.523 48.623c.95 4.044 1.469 8.252 1.469 12.581z" data-original="#000000" class="active-path" style="fill:#00AD5F" data-old_color="#000000"/></g></g></g> </svg>
